<svg xmlns="http://www.w3.org/2000/svg" xmlns:xlink="http://www.w3.org/1999/xlink" version="1.1" width="256" height="256" viewBox="0 0 256 256" xml:space="preserve">

<defs>
</defs>
<g style="stroke: none; stroke-width: 0; stroke-dasharray: none; stroke-linecap: butt; stroke-linejoin: miter; stroke-miterlimit: 10; fill: none; fill-rule: nonzero; opacity: 1;" transform="translate(1.4065934065934016 1.4065934065934016) scale(2.81 2.81)" >
	<path d="M 8.694 76.901 c -0.396 -17.534 -3.273 -24.87 -8.057 -30.226 c -0.849 -0.951 -0.849 -2.399 0 -3.35 c 4.784 -5.356 7.661 -12.692 8.057 -30.226 c 0.055 -2.419 2.032 -4.358 4.452 -4.358 h 63.708 c 2.42 0 4.397 1.939 4.452 4.358 c 0.396 17.534 3.273 24.87 8.057 30.226 c 0.849 0.951 0.849 2.399 0 3.35 c -4.784 5.356 -7.661 12.692 -8.057 30.226 c -0.055 2.419 -2.033 4.358 -4.452 4.358 H 13.146 C 10.727 81.259 8.749 79.32 8.694 76.901 z" style="stroke: none; stroke-width: 1; stroke-dasharray: none; stroke-linecap: butt; stroke-linejoin: miter; stroke-miterlimit: 10; fill: rgb(121,82,179); fill-rule: nonzero; opacity: 1;" transform=" matrix(1 0 0 1 0 0) " stroke-linecap="round" />
	<path d="M 47.48 49 H 34.36 c -2.209 0 -4 -1.791 -4 -4 V 28.681 c 0 -2.209 1.791 -4 4 -4 H 47.48 c 6.705 0 12.159 5.455 12.159 12.16 S 54.186 49 47.48 49 z M 38.36 41 h 9.121 c 2.293 0 4.159 -1.866 4.159 -4.16 s -1.866 -4.16 -4.159 -4.16 H 38.36 V 41 z" style="stroke: none; stroke-width: 1; stroke-dasharray: none; stroke-linecap: butt; stroke-linejoin: miter; stroke-miterlimit: 10; fill: rgb(255,255,255); fill-rule: nonzero; opacity: 1;" transform=" matrix(1 0 0 1 0 0) " stroke-linecap="round" />
	<path d="M 47.48 65.319 H 34.36 c -2.209 0 -4 -1.791 -4 -4 V 45 c 0 -2.209 1.791 -4 4 -4 H 47.48 c 6.705 0 12.159 5.454 12.159 12.159 S 54.186 65.319 47.48 65.319 z M 38.36 57.319 h 9.121 c 2.293 0 4.159 -1.866 4.159 -4.16 c 0 -2.293 -1.866 -4.159 -4.159 -4.159 H 38.36 V 57.319 z" style="stroke: none; stroke-width: 1; stroke-dasharray: none; stroke-linecap: butt; stroke-linejoin: miter; stroke-miterlimit: 10; fill: rgb(255,255,255); fill-rule: nonzero; opacity: 1;" transform=" matrix(1 0 0 1 0 0) " stroke-linecap="round" />
</g>
</svg>